<svg version="1.1" xmlns="http://www.w3.org/2000/svg" xmlns:xlink="http://www.w3.org/1999/xlink" width="652" height="644"><defs></defs><g><g transform="translate(-102,-14) scale(1,1)"><rect fill="#C0C0C0" stroke="none" x="119" y="31" width="224" height="144" opacity="0.2"></rect></g><g transform="translate(-102,-14) scale(1,1)"><rect fill="#ffffff" stroke="none" x="112" y="24" width="224" height="144"></rect></g><g transform="translate(-102,-14) scale(1,1)"><path fill="none" stroke="#000000" d="M 112 24 L 336 24 L 336 168 L 112 168 L 112 24 Z Z" stroke-miterlimit="10"></path></g><g transform="translate(-102,-14) scale(1,1)"><path fill="none" stroke="#000000" d="M 112 49 L 336 49" stroke-miterlimit="10"></path></g><g transform="translate(-102,-14) scale(1,1)"><path fill="none" stroke="#000000" d="M 112 87 L 336 87" stroke-miterlimit="10"></path></g><g transform="translate(-102,-14) scale(1,1)"><g><path fill="none" stroke="none"></path><text fill="#000000" stroke="none" font-family="Arial" font-size="13px" font-style="normal" font-weight="bold" text-decoration="none" x="215.5" y="43.5">list</text></g></g><g transform="translate(-102,-14) scale(1,1)"><g><path fill="none" stroke="none"></path><text fill="#000000" stroke="none" font-family="Arial" font-size="13px" font-style="normal" font-weight="normal" text-decoration="none" x="117" y="66.5">+id</text></g></g><g transform="translate(-102,-14) scale(1,1)"><g><path fill="none" stroke="none"></path><text fill="#000000" stroke="none" font-family="Arial" font-size="13px" font-style="normal" font-weight="normal" text-decoration="none" x="117" y="81.5">+name</text></g></g><g transform="translate(-102,-14) scale(1,1)"><rect fill="#C0C0C0" stroke="none" x="527" y="31" width="224" height="144" opacity="0.2"></rect></g><g transform="translate(-102,-14) scale(1,1)"><rect fill="#ffffff" stroke="none" x="520" y="24" width="224" height="144"></rect></g><g transform="translate(-102,-14) scale(1,1)"><path fill="none" stroke="#000000" d="M 520 24 L 744 24 L 744 168 L 520 168 L 520 24 Z Z" stroke-miterlimit="10"></path></g><g transform="translate(-102,-14) scale(1,1)"><path fill="none" stroke="#000000" d="M 520 49 L 744 49" stroke-miterlimit="10"></path></g><g transform="translate(-102,-14) scale(1,1)"><path fill="none" stroke="#000000" d="M 520 87 L 744 87" stroke-miterlimit="10"></path></g><g transform="translate(-102,-14) scale(1,1)"><g><path fill="none" stroke="none"></path><text fill="#000000" stroke="none" font-family="Arial" font-size="13px" font-style="normal" font-weight="bold" text-decoration="none" x="619.5" y="43.5">card</text></g></g><g transform="translate(-102,-14) scale(1,1)"><g><path fill="none" stroke="none"></path><text fill="#000000" stroke="none" font-family="Arial" font-size="13px" font-style="normal" font-weight="normal" text-decoration="none" x="525" y="66.5">+id</text></g></g><g transform="translate(-102,-14) scale(1,1)"><g><path fill="none" stroke="none"></path><text fill="#000000" stroke="none" font-family="Arial" font-size="13px" font-style="normal" font-weight="normal" text-decoration="none" x="525" y="81.5">+name</text></g></g><g transform="translate(-102,-14) scale(1,1)"><rect fill="#C0C0C0" stroke="none" x="335" y="263" width="224" height="144" opacity="0.2"></rect></g><g transform="translate(-102,-14) scale(1,1)"><rect fill="#ffffff" stroke="none" x="328" y="256" width="224" height="144"></rect></g><g transform="translate(-102,-14) scale(1,1)"><path fill="none" stroke="#000000" d="M 328 256 L 552 256 L 552 400 L 328 400 L 328 256 Z Z" stroke-miterlimit="10"></path></g><g transform="translate(-102,-14) scale(1,1)"><path fill="none" stroke="#000000" d="M 328 281 L 552 281" stroke-miterlimit="10"></path></g><g transform="translate(-102,-14) scale(1,1)"><path fill="none" stroke="#000000" d="M 328 334 L 552 334" stroke-miterlimit="10"></path></g><g transform="translate(-102,-14) scale(1,1)"><g><path fill="none" stroke="none"></path><text fill="#000000" stroke="none" font-family="Arial" font-size="13px" font-style="normal" font-weight="bold" text-decoration="none" x="399.5" y="275.5">user_card_list</text></g></g><g transform="translate(-102,-14) scale(1,1)"><g><path fill="none" stroke="none"></path><text fill="#000000" stroke="none" font-family="Arial" font-size="13px" font-style="normal" font-weight="normal" text-decoration="none" x="333" y="298.5">+user_id</text></g></g><g transform="translate(-102,-14) scale(1,1)"><g><path fill="none" stroke="none"></path><text fill="#000000" stroke="none" font-family="Arial" font-size="13px" font-style="normal" font-weight="normal" text-decoration="none" x="333" y="313.5">+card_id</text></g></g><g transform="translate(-102,-14) scale(1,1)"><g><path fill="none" stroke="none"></path><text fill="#000000" stroke="none" font-family="Arial" font-size="13px" font-style="normal" font-weight="normal" text-decoration="none" x="333" y="328.5">+list_id</text></g></g><g transform="translate(-102,-14) scale(1,1)"><rect fill="#C0C0C0" stroke="none" x="335" y="511" width="224" height="144" opacity="0.2"></rect></g><g transform="translate(-102,-14) scale(1,1)"><rect fill="#ffffff" stroke="none" x="328" y="504" width="224" height="144"></rect></g><g transform="translate(-102,-14) scale(1,1)"><path fill="none" stroke="#000000" d="M 328 504 L 552 504 L 552 648 L 328 648 L 328 504 Z Z" stroke-miterlimit="10"></path></g><g transform="translate(-102,-14) scale(1,1)"><path fill="none" stroke="#000000" d="M 328 529 L 552 529" stroke-miterlimit="10"></path></g><g transform="translate(-102,-14) scale(1,1)"><path fill="none" stroke="#000000" d="M 328 582 L 552 582" stroke-miterlimit="10"></path></g><g transform="translate(-102,-14) scale(1,1)"><g><path fill="none" stroke="none"></path><text fill="#000000" stroke="none" font-family="Arial" font-size="13px" font-style="normal" font-weight="bold" text-decoration="none" x="427.5" y="523.5">user</text></g></g><g transform="translate(-102,-14) scale(1,1)"><g><path fill="none" stroke="none"></path><text fill="#000000" stroke="none" font-family="Arial" font-size="13px" font-style="normal" font-weight="normal" text-decoration="none" x="333" y="546.5">+id</text></g></g><g transform="translate(-102,-14) scale(1,1)"><g><path fill="none" stroke="none"></path><text fill="#000000" stroke="none" font-family="Arial" font-size="13px" font-style="normal" font-weight="normal" text-decoration="none" x="333" y="561.5">+firstname</text></g></g><g transform="translate(-102,-14) scale(1,1)"><g><path fill="none" stroke="none"></path><text fill="#000000" stroke="none" font-family="Arial" font-size="13px" font-style="normal" font-weight="normal" text-decoration="none" x="333" y="576.5">+lastname</text></g></g><g transform="translate(-102,-14) scale(1,1)"><path fill="none" stroke="#000000" d="M 292 169 L 372 255" stroke-miterlimit="10"></path></g><g transform="translate(-102,-14) scale(1,1)"><g><path fill="none" stroke="none"></path><text fill="#000000" stroke="none" font-family="Arial" font-size="13px" font-style="normal" font-weight="normal" text-decoration="none" x="293.5" y="199.5">1</text></g></g><g transform="translate(-102,-14) scale(1,1)"><g><path fill="none" stroke="none"></path><text fill="#000000" stroke="none" font-family="Arial" font-size="13px" font-style="normal" font-weight="normal" text-decoration="none" x="337.5" y="253.5">0..*</text></g></g><g transform="translate(-102,-14) scale(1,1)"><path fill="none" stroke="#000000" d="M 572 169 L 500 255" stroke-miterlimit="10"></path></g><g transform="translate(-102,-14) scale(1,1)"><g><path fill="none" stroke="none"></path><text fill="#000000" stroke="none" font-family="Arial" font-size="13px" font-style="normal" font-weight="normal" text-decoration="none" x="544.5" y="183.5">1</text></g></g><g transform="translate(-102,-14) scale(1,1)"><g><path fill="none" stroke="none"></path><text fill="#000000" stroke="none" font-family="Arial" font-size="13px" font-style="normal" font-weight="normal" text-decoration="none" x="493.5" y="236.5">0..*</text></g></g><g transform="translate(-102,-14) scale(1,1)"><path fill="none" stroke="#000000" d="M 440 401 L 440 503" stroke-miterlimit="10"></path></g><g transform="translate(-102,-14) scale(1,1)"><g><path fill="none" stroke="none"></path><text fill="#000000" stroke="none" font-family="Arial" font-size="13px" font-style="normal" font-weight="normal" text-decoration="none" x="416.5" y="428.5">0..*</text></g></g><g transform="translate(-102,-14) scale(1,1)"><g><path fill="none" stroke="none"></path><text fill="#000000" stroke="none" font-family="Arial" font-size="13px" font-style="normal" font-weight="normal" text-decoration="none" x="423" y="487.5">1</text></g></g></g></svg>