<svg version="1.1" xmlns="http://www.w3.org/2000/svg" xmlns:xlink="http://www.w3.org/1999/xlink" width="684" height="446"><defs></defs><g><g transform="translate(-86,-1140) scale(1,1)"><rect fill="#C0C0C0" stroke="none" x="103" y="1157" width="176" height="208" opacity="0.2"></rect></g><g transform="translate(-86,-1140) scale(1,1)"><rect fill="#ffffff" stroke="none" x="96" y="1150" width="176" height="208"></rect></g><g transform="translate(-86,-1140) scale(1,1)"><path fill="none" stroke="#000000" d="M 96 1150 L 272 1150 L 272 1358 L 96 1358 L 96 1150 Z Z" stroke-miterlimit="10"></path></g><g transform="translate(-86,-1140) scale(1,1)"><path fill="none" stroke="#000000" d="M 96 1175 L 272 1175" stroke-miterlimit="10"></path></g><g transform="translate(-86,-1140) scale(1,1)"><path fill="none" stroke="#000000" d="M 96 1213 L 272 1213" stroke-miterlimit="10"></path></g><g transform="translate(-86,-1140) scale(1,1)"><g><path fill="none" stroke="none"></path><text fill="#000000" stroke="none" font-family="Arial" font-size="13px" font-style="normal" font-weight="bold" text-decoration="none" x="175.5" y="1169.5">list</text></g></g><g transform="translate(-86,-1140) scale(1,1)"><g><path fill="none" stroke="none"></path><text fill="#000000" stroke="none" font-family="Arial" font-size="13px" font-style="normal" font-weight="normal" text-decoration="none" x="101" y="1192.5">+id</text></g></g><g transform="translate(-86,-1140) scale(1,1)"><g><path fill="none" stroke="none"></path><text fill="#000000" stroke="none" font-family="Arial" font-size="13px" font-style="normal" font-weight="normal" text-decoration="none" x="101" y="1207.5">+name</text></g></g><g transform="translate(-86,-1140) scale(1,1)"><rect fill="#C0C0C0" stroke="none" x="591" y="1157" width="176" height="208" opacity="0.2"></rect></g><g transform="translate(-86,-1140) scale(1,1)"><rect fill="#ffffff" stroke="none" x="584" y="1150" width="176" height="208"></rect></g><g transform="translate(-86,-1140) scale(1,1)"><path fill="none" stroke="#000000" d="M 584 1150 L 760 1150 L 760 1358 L 584 1358 L 584 1150 Z Z" stroke-miterlimit="10"></path></g><g transform="translate(-86,-1140) scale(1,1)"><path fill="none" stroke="#000000" d="M 584 1175 L 760 1175" stroke-miterlimit="10"></path></g><g transform="translate(-86,-1140) scale(1,1)"><path fill="none" stroke="#000000" d="M 584 1213 L 760 1213" stroke-miterlimit="10"></path></g><g transform="translate(-86,-1140) scale(1,1)"><g><path fill="none" stroke="none"></path><text fill="#000000" stroke="none" font-family="Arial" font-size="13px" font-style="normal" font-weight="bold" text-decoration="none" x="659.5" y="1169.5">card</text></g></g><g transform="translate(-86,-1140) scale(1,1)"><g><path fill="none" stroke="none"></path><text fill="#000000" stroke="none" font-family="Arial" font-size="13px" font-style="normal" font-weight="normal" text-decoration="none" x="589" y="1192.5">+id</text></g></g><g transform="translate(-86,-1140) scale(1,1)"><g><path fill="none" stroke="none"></path><text fill="#000000" stroke="none" font-family="Arial" font-size="13px" font-style="normal" font-weight="normal" text-decoration="none" x="589" y="1207.5">+name</text></g></g><g transform="translate(-86,-1140) scale(1,1)"><path fill="none" stroke="#000000" d="M 273 1254 L 583 1254" stroke-miterlimit="10"></path></g><g transform="translate(-86,-1140) scale(1,1)"><g><path fill="none" stroke="none"></path><text fill="#000000" stroke="none" font-family="Arial" font-size="13px" font-style="normal" font-weight="normal" text-decoration="none" x="290.5" y="1272.5">1</text></g></g><g transform="translate(-86,-1140) scale(1,1)"><g><path fill="none" stroke="none"></path><text fill="#000000" stroke="none" font-family="Arial" font-size="13px" font-style="normal" font-weight="normal" text-decoration="none" x="550.5" y="1272.5">0..*</text></g></g><g transform="translate(-86,-1140) scale(1,1)"><rect fill="#C0C0C0" stroke="none" x="343" y="1375" width="176" height="208" opacity="0.2"></rect></g><g transform="translate(-86,-1140) scale(1,1)"><rect fill="#ffffff" stroke="none" x="336" y="1368" width="176" height="208"></rect></g><g transform="translate(-86,-1140) scale(1,1)"><path fill="none" stroke="#000000" d="M 336 1368 L 512 1368 L 512 1576 L 336 1576 L 336 1368 Z Z" stroke-miterlimit="10"></path></g><g transform="translate(-86,-1140) scale(1,1)"><path fill="none" stroke="#000000" d="M 336 1393 L 512 1393" stroke-miterlimit="10"></path></g><g transform="translate(-86,-1140) scale(1,1)"><path fill="none" stroke="#000000" d="M 336 1446 L 512 1446" stroke-miterlimit="10"></path></g><g transform="translate(-86,-1140) scale(1,1)"><g><path fill="none" stroke="none"></path><text fill="#000000" stroke="none" font-family="Arial" font-size="13px" font-style="normal" font-weight="bold" text-decoration="none" x="411.5" y="1387.5">user</text></g></g><g transform="translate(-86,-1140) scale(1,1)"><g><path fill="none" stroke="none"></path><text fill="#000000" stroke="none" font-family="Arial" font-size="13px" font-style="normal" font-weight="normal" text-decoration="none" x="341" y="1410.5">+id</text></g></g><g transform="translate(-86,-1140) scale(1,1)"><g><path fill="none" stroke="none"></path><text fill="#000000" stroke="none" font-family="Arial" font-size="13px" font-style="normal" font-weight="normal" text-decoration="none" x="341" y="1425.5">+firstname</text></g></g><g transform="translate(-86,-1140) scale(1,1)"><g><path fill="none" stroke="none"></path><text fill="#000000" stroke="none" font-family="Arial" font-size="13px" font-style="normal" font-weight="normal" text-decoration="none" x="341" y="1440.5">+lastname</text></g></g><g transform="translate(-86,-1140) scale(1,1)"><path fill="none" stroke="#000000" d="M 513 1394 L 583 1332" stroke-miterlimit="10"></path></g><g transform="translate(-86,-1140) scale(1,1)"><g><path fill="none" stroke="none"></path><text fill="#000000" stroke="none" font-family="Arial" font-size="13px" font-style="normal" font-weight="normal" text-decoration="none" x="533" y="1395.5">1</text></g></g><g transform="translate(-86,-1140) scale(1,1)"><g><path fill="none" stroke="none"></path><text fill="#000000" stroke="none" font-family="Arial" font-size="13px" font-style="normal" font-weight="normal" text-decoration="none" x="564.5" y="1361.5">0..*</text></g></g></g></svg>